# xmcd CD database file
#
# Track frame offsets:
#	150
#	34722
#	66070
#	87632
#	107557
#	131567
#	158537
#	202942
#	224802
#
# Disc length: 3393 seconds
#
# Revision: 3
# Processed by: cddbd v1.4PL0 Copyright (c) Steve Scherf et al.
# Submitted via: CDex 1.50Beta6
#
DISCID=7b0d3f09
DTITLE=Gonzalo Rubalcaba Trio - Diz
DYEAR=1994
DGENRE=Jazz
TTITLE0=Hot House
TTITLE1=Woody 'N' You
TTITLE2=I Remember Clifford
TTITLE3=Donna Lee
TTITLE4=Bouncing with Bud
TTITLE5=Smooch
TTITLE6=Ah-Leu-Cha
TTITLE7=A Night in Tunisia
TTITLE8=Con Alma
EXTD=YEAR: 1994
EXTT0=
EXTT1=
EXTT2=
EXTT3=
EXTT4=
EXTT5=
EXTT6=
EXTT7=
EXTT8=
PLAYORDER=
